<!DOCTYPE svg PUBLIC "-//W3C//DTD SVG 20010904//EN" "http://www.w3.org/TR/2001/REC-SVG-20010904/DTD/svg10.dtd">
<svg version="1.0" xmlns="http://www.w3.org/2000/svg" width="204px" height="172px" viewBox="0 0 2040 1720" preserveAspectRatio="xMidYMid meet">
<g id="layer1" fill="#6a6a6a" stroke="none">
 <path d="M943 1550 c-74 -30 -83 -162 -20 -295 44 -92 75 -137 88 -129 6 3 9 -1 7 -10 -2 -10 24 -55 57 -101 60 -84 85 -107 63 -60 -6 14 -15 25 -20 25 -5 0 -7 4 -4 9 8 12 -132 207 -145 203 -6 -1 -8 2 -4 8 3 5 -3 23 -14 38 -68 96 -73 219 -11 275 64 57 179 23 180 -55 0 -41 -10 -59 -44 -74 -17 -7 -24 -13 -15 -14 45 -1 92 96 68 141 -21 40 -128 62 -186 39z m7 -13 c0 -2 -12 -14 -26 -28 -25 -22 -26 -23 -15 -2 9 18 19 26 39 32 1 1 2 0 2 -2z m50 -387 c6 -11 8 -20 6 -20 -3 0 -10 9 -16 20 -6 11 -8 20 -6 20 3 0 10 -9 16 -20z m65 -91 c20 -28 32 -48 26 -45 -12 8 -74 96 -67 96 2 0 21 -23 41 -51z"/>
 <path d="M1142 1440 c0 -19 2 -27 5 -17 2 9 2 25 0 35 -3 9 -5 1 -5 -18z"/>
 <path d="M1119 1377 c-9 -12 -33 -23 -60 -27 l-44 -7 37 -2 c26 -1 45 6 65 23 15 13 26 26 23 29 -3 3 -12 -4 -21 -16z"/>
 <path d="M1015 1370 c-3 -6 1 -7 9 -4 18 7 21 14 7 14 -6 0 -13 -4 -16 -10z"/>
 <path d="M681 1323 c-10 -20 -12 -80 -2 -67 3 5 24 -9 46 -30 25 -25 32 -37 20 -32 -24 9 -21 6 78 -68 89 -67 157 -139 197 -209 18 -32 30 -44 34 -35 3 7 4 0 1 -17 -4 -27 -3 -28 6 -8 27 52 -116 224 -278 336 -84 58 -102 84 -88 126 8 26 -1 28 -14 4z m185 -204 c75 -59 184 -192 184 -223 0 -6 -14 11 -30 38 -41 64 -112 139 -185 194 -74 56 -87 68 -55 52 14 -7 52 -35 86 -61z"/>
 <path d="M695 1220 c10 -11 20 -20 23 -20 3 0 -3 9 -13 20 -10 11 -20 20 -23 20 -3 0 3 -9 13 -20z"/>
 <path d="M1296 1194 c-59 -59 -96 -211 -95 -391 1 -73 5 -147 9 -165 l7 -33 7 47 c5 26 5 51 2 57 -14 22 -7 265 8 324 21 77 61 153 83 159 48 11 74 -24 31 -42 -13 -5 -16 -9 -8 -9 8 0 24 6 35 15 15 11 17 18 9 32 -15 23 -67 27 -88 6z m-79 -521 c-3 -10 -5 -4 -5 12 0 17 2 24 5 18 2 -7 2 -21 0 -30z"/>
 <path d="M1435 1171 c-4 -7 4 -11 19 -11 37 0 32 -17 -8 -34 -42 -18 -51 -53 -43 -160 5 -65 22 -134 31 -125 8 7 -7 99 -14 94 -7 -5 -3 107 5 150 2 12 18 25 35 32 25 9 31 17 28 35 -3 24 -41 38 -53 19z"/>
 <path d="M644 1128 c-21 -18 -54 -48 -74 -67 l-35 -33 40 30 c53 40 122 101 114 102 -3 0 -23 -15 -45 -32z"/>
 <path d="M466 934 c-9 -25 -7 -83 4 -105 13 -24 61 -49 95 -49 30 0 105 36 105 50 0 10 -63 -20 -68 -32 -2 -5 -20 -8 -40 -7 -24 0 -31 3 -20 7 15 6 13 10 -13 21 -36 16 -60 63 -52 104 6 29 -1 37 -11 11z m47 -119 c12 -8 17 -15 11 -15 -15 0 -54 39 -54 53 0 7 5 4 11 -5 5 -10 19 -24 32 -33z"/>
 <path d="M1340 870 c0 -5 5 -10 10 -10 6 0 9 -3 8 -7 -4 -12 42 -83 53 -83 5 0 8 -3 7 -7 -1 -5 15 -42 35 -83 43 -87 56 -166 37 -224 -7 -21 -32 -60 -57 -88 -49 -55 -51 -78 -2 -32 77 73 103 162 74 260 -20 71 -61 154 -76 154 -5 0 -8 4 -4 10 3 5 -3 18 -15 30 -11 11 -19 21 -18 23 1 1 -7 17 -17 35 -19 31 -35 42 -35 22z"/>
 <path d="M710 818 c0 -33 3 -39 11 -28 8 11 9 8 5 -15 -3 -16 -2 -37 4 -45 9 -13 10 -13 10 0 0 13 1 13 10 0 13 -20 13 -33 -1 -24 -18 11 6 -28 33 -52 12 -12 37 -29 55 -38 35 -18 103 -22 103 -6 0 6 -17 8 -42 5 -29 -4 -36 -2 -23 3 18 8 17 9 -7 15 -63 16 -123 97 -135 182 -7 57 -23 59 -23 3z m121 -177 c19 -12 30 -21 24 -21 -20 0 -74 39 -85 62 l-11 23 19 -22 c10 -12 34 -31 53 -42z"/>
 <path d="M1066 834 c-3 -9 -6 -36 -6 -60 0 -25 -5 -55 -11 -67 -11 -21 -10 -21 6 -5 13 12 19 36 22 82 3 66 0 80 -11 50z"/>
 <path d="M968 633 c-10 -2 -18 -9 -18 -14 0 -13 13 -11 36 6 19 14 14 17 -18 8z"/>
 <path d="M1231 628 c-1 -9 -4 -25 -7 -35 -5 -15 -4 -16 6 -3 10 12 11 11 6 -9 -5 -24 24 -93 44 -106 13 -8 13 -2 -2 30 -6 14 -15 25 -20 25 -5 0 -7 4 -4 8 3 5 -1 30 -9 58 -7 27 -14 41 -14 32z"/>
 <path d="M1182 428 c-20 -20 -13 -32 7 -14 15 14 29 16 64 11 29 -4 47 -3 51 4 10 16 -106 15 -122 -1z"/>
 <path d="M1317 423 c-4 -3 2 -12 13 -20 11 -8 20 -25 20 -39 0 -13 4 -24 9 -24 5 0 7 10 4 23 -4 18 -3 19 7 7 9 -12 10 -10 4 10 -10 35 -42 59 -57 43z m34 -20 c13 -16 12 -17 -3 -4 -10 7 -18 15 -18 17 0 8 8 3 21 -13z"/>
 <path d="M1158 333 c7 -12 9 -28 6 -36 -7 -18 43 -78 60 -71 23 9 13 -24 -11 -37 -12 -7 -23 -16 -23 -21 0 -5 14 -2 30 7 17 9 30 19 30 24 0 14 39 5 60 -14 24 -22 26 -13 4 21 -10 15 -23 23 -31 20 -30 -12 -103 44 -103 80 0 12 -7 28 -17 35 -15 13 -15 12 -5 -8z"/>
 <path d="M1243 323 c9 -2 23 -2 30 0 6 3 -1 5 -18 5 -16 0 -22 -2 -12 -5z"/>
 <path d="M1344 283 c2 -10 7 -27 10 -38 3 -11 2 -36 -4 -55 -13 -44 -6 -50 14 -11 18 35 20 74 6 102 -13 24 -33 25 -26 2z m23 -35 c-3 -8 -6 -5 -6 6 -1 11 2 17 5 13 3 -3 4 -12 1 -19z"/>
 <path d="M1191 204 c0 -11 3 -14 6 -6 3 7 2 16 -1 19 -3 4 -6 -2 -5 -13z"/>
 </g>
<g id="layer2" fill="#595959" stroke="none">
 <path d="M932 1533 c-7 -2 -17 -14 -23 -26 -11 -21 -10 -20 15 2 14 14 26 26 26 28 0 3 0 3 -18 -4z"/>
 <path d="M1130 1451 c0 -39 -31 -75 -66 -77 -16 -1 -32 -3 -36 -3 -5 -1 -8 -5 -8 -11 0 -5 16 -10 35 -10 51 0 85 36 85 90 0 22 -2 40 -5 40 -3 0 -5 -13 -5 -29z"/>
 <path d="M676 1265 c11 -32 22 -42 96 -91 133 -89 239 -203 279 -302 13 -30 18 -36 14 -17 -17 84 -143 232 -273 319 -40 27 -84 63 -98 80 -16 20 -22 24 -18 11z"/>
 <path d="M995 1145 c27 -44 95 -135 100 -135 6 0 -92 138 -109 155 -5 6 -1 -3 9 -20z"/>
 <path d="M1411 944 c0 -11 3 -14 6 -6 3 7 2 16 -1 19 -3 4 -6 -2 -5 -13z"/>
 <path d="M470 850 c0 -14 43 -50 66 -56 12 -3 33 -4 45 -1 16 3 11 5 -14 6 -28 1 -47 9 -68 30 -16 16 -29 25 -29 21z"/>
 <path d="M721 784 c0 -11 3 -14 6 -6 3 7 2 16 -1 19 -3 4 -6 -2 -5 -13z"/>
 <path d="M1201 764 c0 -11 3 -14 6 -6 3 7 2 16 -1 19 -3 4 -6 -2 -5 -13z"/>
 <path d="M736 740 c17 -62 101 -131 156 -129 17 1 15 3 -9 9 -59 14 -95 44 -136 114 -15 27 -17 28 -11 6z"/>
 <path d="M1212 685 c0 -16 2 -22 5 -12 2 9 2 23 0 30 -3 6 -5 -1 -5 -18z"/>
 <path d="M1221 629 c0 -13 4 -33 9 -44 7 -14 8 -8 3 20 -7 46 -13 59 -12 24z"/>
 <path d="M1330 416 c0 -2 8 -10 18 -17 15 -13 16 -12 3 4 -13 16 -21 21 -21 13z"/>
 <path d="M1361 364 c0 -11 3 -14 6 -6 3 7 2 16 -1 19 -3 4 -6 -2 -5 -13z"/>
 <path d="M1361 254 c0 -11 3 -14 6 -6 3 7 2 16 -1 19 -3 4 -6 -2 -5 -13z"/>
 <path d="M1212 234 c10 -10 20 -16 22 -13 3 3 -5 11 -17 18 -21 13 -21 12 -5 -5z"/>
 </g>

</svg>